<?xml version="1.0" standalone="no"?>
<!DOCTYPE svg PUBLIC "-//W3C//DTD SVG 20010904//EN"
 "http://www.w3.org/TR/2001/REC-SVG-20010904/DTD/svg10.dtd">
<svg version="1.0" xmlns="http://www.w3.org/2000/svg"
 width="991.000000pt" height="1280.000000pt" viewBox="0 0 991.000000 1280.000000"
 preserveAspectRatio="xMidYMid meet">
<metadata>
Created by potrace 1.15, written by Peter Selinger 2001-2017
</metadata>
<g transform="translate(0.000000,1280.000000) scale(0.100000,-0.100000)"
fill="#000000" stroke="none">
<path d="M1227 12763 c-3 -4 -23 -53 -45 -108 -22 -55 -90 -215 -151 -357
-179 -415 -233 -549 -308 -763 -32 -94 -34 -107 -34 -230 0 -237 46 -460 141
-674 31 -71 31 -75 17 -110 -8 -20 -22 -54 -30 -77 -24 -62 -141 -450 -192
-634 -25 -91 -48 -173 -51 -182 -4 -14 -10 -15 -35 -6 -16 6 -58 8 -92 6 -126
-8 -251 -95 -309 -216 -27 -57 -31 -79 -36 -173 -6 -130 7 -222 54 -378 37
-120 59 -170 106 -238 l29 -43 -80 -302 c-194 -736 -214 -819 -199 -846 24
-46 132 -133 216 -175 74 -36 93 -41 171 -45 74 -4 95 -1 139 18 98 42 147
125 164 273 5 51 21 160 35 242 43 251 39 233 46 205 14 -55 68 -405 87 -570
47 -405 111 -686 329 -1455 91 -317 142 -515 186 -713 103 -464 223 -716 462
-963 l103 -106 -86 -11 c-99 -13 -139 -34 -177 -91 -43 -65 -212 -409 -260
-531 -181 -453 -211 -823 -89 -1067 28 -54 29 -60 15 -86 -8 -16 -21 -61 -29
-100 -70 -337 283 -885 710 -1102 58 -29 76 -43 76 -59 0 -32 52 -135 103
-202 153 -202 484 -422 720 -480 94 -22 284 -28 466 -14 l163 12 15 -23 c28
-41 136 -139 204 -185 199 -132 397 -199 589 -198 100 0 128 4 220 32 128 38
306 106 421 159 l85 40 29 -23 c44 -35 110 -49 220 -47 216 3 528 112 767 268
69 44 91 54 105 47 10 -6 46 -16 81 -22 170 -34 451 94 704 320 49 44 73 60
76 50 3 -7 16 -24 30 -37 97 -90 423 82 742 393 l125 122 57 -5 c45 -4 66 -1
102 16 91 45 214 205 322 424 47 93 63 117 79 117 106 0 344 246 480 495 21
39 39 71 39 72 1 1 28 -11 61 -28 210 -103 489 -62 655 97 121 115 162 261
125 437 -71 335 -410 617 -742 617 -123 0 -252 -47 -339 -123 -38 -34 -104
-142 -104 -172 0 -6 -12 -18 -26 -26 -40 -21 -162 -157 -196 -216 -17 -29 -33
-53 -37 -53 -3 0 -15 6 -26 14 -11 7 -47 23 -79 35 -116 43 -246 23 -321 -49
l-30 -29 -35 46 c-125 168 -375 129 -587 -90 l-70 -72 -52 23 c-165 75 -352
38 -491 -98 -58 -58 -62 -60 -113 -60 -206 0 -481 -191 -589 -409 -18 -36 -34
-67 -34 -69 -1 -2 -17 -5 -36 -8 l-34 -6 -13 70 c-25 139 -115 272 -218 321
-26 12 -54 25 -61 29 -8 4 -22 31 -32 59 -21 59 -47 101 -97 154 l-33 35 103
81 c151 119 208 174 266 258 106 152 160 315 168 500 6 129 -9 218 -46 281
l-19 32 82 65 c44 36 178 149 296 252 422 367 588 489 865 634 501 262 755
436 1038 711 83 80 147 136 144 125 -4 -11 -25 -96 -47 -190 -22 -93 -58 -244
-79 -335 -22 -90 -39 -165 -38 -166 1 -1 133 -48 294 -106 l292 -105 21 91
c172 754 217 940 230 947 8 4 48 14 88 23 146 32 302 127 451 275 200 199 171
349 -105 538 -49 33 -118 75 -154 93 -36 18 -66 33 -68 35 -2 2 278 1230 310
1358 12 46 11 51 -40 173 l-52 126 110 116 c96 101 108 118 97 134 -6 9 -40
50 -74 90 l-61 74 115 94 114 93 -92 93 -92 92 64 59 c35 32 86 78 112 103
l48 45 -101 99 c-55 55 -97 102 -92 105 5 3 54 39 110 80 l101 73 -85 105
c-46 58 -84 108 -84 112 0 3 50 46 110 96 l111 89 -122 122 -121 122 96 68 96
68 1 61 c2 121 1 123 -136 280 -97 111 -271 295 -278 295 -2 0 -7 -21 -10 -47
-4 -27 -11 -75 -16 -108 -15 -95 -132 -844 -141 -905 -28 -179 -161 -1035
-224 -1443 -42 -263 -74 -499 -74 -525 1 -28 -21 -141 -55 -282 -31 -129 -78
-324 -105 -434 l-48 -199 -27 41 c-33 50 -113 112 -191 148 -112 51 -208 19
-260 -89 -44 -89 -56 -172 -66 -467 -11 -305 -19 -366 -60 -457 -62 -137 -162
-236 -425 -426 -306 -219 -384 -293 -507 -482 -42 -64 -97 -131 -154 -185
-145 -139 -269 -203 -399 -204 -127 -1 -222 69 -303 223 -24 45 -55 95 -70
112 -22 27 -23 32 -10 40 28 16 162 122 232 183 96 85 252 260 357 399 149
199 294 439 494 817 182 344 298 554 392 711 275 461 331 682 419 1659 32 355
3 575 -105 815 -70 155 -219 340 -346 430 -130 93 -242 136 -600 231 -188 50
-278 87 -441 181 -358 207 -542 276 -739 277 -109 1 -168 -13 -302 -71 -186
-80 -345 -90 -524 -32 -72 23 -202 86 -263 128 -257 176 -601 187 -886 28 -92
-51 -234 -190 -465 -456 -442 -507 -635 -834 -739 -1250 -100 -398 -136 -716
-143 -1257 -10 -712 4 -782 270 -1359 106 -231 177 -417 193 -507 l6 -36 -64
25 c-84 35 -233 43 -328 18 -151 -39 -290 -144 -345 -262 -51 -105 -44 -247
16 -364 41 -82 41 -241 -2 -355 -24 -63 -82 -134 -109 -134 -34 0 -78 50 -126
143 -75 146 -145 256 -320 505 -224 316 -295 426 -364 567 -113 230 -180 453
-207 693 -15 122 -15 159 -5 255 23 208 60 309 207 572 175 313 277 550 316
730 17 81 17 277 0 345 -82 332 -325 356 -633 62 -43 -41 -78 -72 -78 -69 0
14 97 377 151 567 38 132 131 410 157 471 19 45 20 45 88 58 240 44 535 274
662 516 11 22 34 101 51 175 79 358 283 1243 315 1368 13 52 13 54 -9 62 -12
5 -30 10 -40 12 -13 2 -81 -118 -314 -556 -188 -352 -305 -563 -317 -567 -37
-15 -111 -10 -125 8 -23 27 -13 118 26 248 19 66 64 219 99 340 35 121 94 322
130 447 36 124 66 230 66 235 0 5 -15 17 -34 26 l-35 16 -23 -42 c-13 -23
-161 -296 -328 -606 -279 -516 -308 -565 -339 -578 -18 -8 -47 -13 -64 -11
-59 6 -60 46 -4 358 14 80 35 231 47 335 12 105 35 285 50 400 16 116 25 213
22 217 -12 12 -69 21 -75 11z"/>
</g>
</svg>
